# xmcd
#
# Track frame offsets:
# 150
# 18075
# 35931
# 56710
# 77091
# 98654
# 120094
# 137497
# 159473
# 181116
# 198249
# 215660
# 235324
# 252665
# 272402
# 287111
#
# Disc length: 4058 seconds
#
#
# Revision: 0
# Processed by: cddbd v1.5PL3 Copyright (c) Steve Scherf et al.
# Submitted via: FreeRIP 2.35 
#
DISCID=da0fd810
DTITLE=The Tesca All-Stars - Ultimate R'nB volume one
DYEAR=1997
DGENRE=R&B
TTITLE0=I'll be missing you
TTITLE1=Hypnotize
TTITLE2=Over and over
TTITLE3=In my bed
TTITLE4=For you I will
TTITLE5=Gotham City
TTITLE6=You might need somebody
TTITLE7=Can't nobody hold me down
TTITLE8=Don't wanna be a player
TTITLE9=On and on
TTITLE10=Thinking of you
TTITLE11=G.H.E.T.T.O.U.T.
TTITLE12=Cold rock a party
TTITLE13=I don't want to
TTITLE14=Hard to say I'm sorry
TTITLE15=Men in black
EXTD=
EXTT0=
EXTT1=
EXTT2=
EXTT3=
EXTT4=
EXTT5=
EXTT6=
EXTT7=
EXTT8=
EXTT9=
EXTT10=
EXTT11=
EXTT12=
EXTT13=
EXTT14=
EXTT15=
PLAYORDER=
